# xmcd
#
# Track frame offsets:
#	150
#	17210
#	58182
#	91542
#	107989
#	144985
#	183351
#	218988
#
# Disc length: 3267 seconds
#
# Revision: 1
# Processed by: cddbd v1.5.1PL2 Copyright (c) Steve Scherf et al.
# Submitted via: EasyCDDAExtractor 9.0.0.1
#
DISCID=6b0cc108
DTITLE=Black Sabbath - Astoria London 05-12-99 Source 2 Disc 2
DYEAR=1999
DGENRE=Hard Rock
TTITLE0=Band Intros
TTITLE1=Snowblind
TTITLE2=Dirty Women
TTITLE3=Tomorrow's Dream
TTITLE4=Black Sabbath
TTITLE5=Iron Man
TTITLE6=Children Of The Grave
TTITLE7=Supernaut(Intro) - Paranoid
EXTD=
EXTT0=
EXTT1=
EXTT2=
EXTT3=
EXTT4=
EXTT5=
EXTT6=
EXTT7=
PLAYORDER=
